<?xml version="1.0" encoding="iso-8859-1"?>
<!-- Uploaded to: SVG Repo, www.svgrepo.com, Generator: SVG Repo Mixer Tools -->
<svg height="800px" width="800px" version="1.1" id="Layer_1" xmlns="http://www.w3.org/2000/svg" xmlns:xlink="http://www.w3.org/1999/xlink" 
	 viewBox="0 0 503.467 503.467" xml:space="preserve">
<g transform="translate(1 1)">
	<path style="fill:#80D6FA;" d="M71.533,429.933v51.2c0,9.387-7.68,17.067-17.067,17.067h-51.2V276.333h51.2
		c9.387,0,17.067,7.68,17.067,17.067v17.067V429.933z"/>
	<path style="fill:#FFD0A1;" d="M353.133,399.213c2.56-0.853,5.973-2.56,8.533-3.413l98.133-47.787
		c11.947-6.827,28.16-2.56,34.987,9.387c6.827,11.947,2.56,28.16-9.387,34.987l-115.2,71.68c0,0-25.6,17.067-85.333,17.067
		c-51.2,0-128-42.667-128-42.667s-17.067-8.533-51.2-8.533H71.533V310.467h102.4c25.6,0,68.267,51.2,93.867,51.2H319
		c17.067,0,25.6,8.533,25.6,8.533s11.093,6.827,7.68,25.6L353.133,399.213z"/>
	<polygon style="fill:#F2EDDA;" points="481.133,131.267 481.133,276.333 225.133,276.333 225.133,131.267 336.067,20.333 
		353.133,3.267 370.2,20.333 	"/>
	<path style="fill:#FF7474;" d="M498.2,20.333v128l-17.067-17.067L370.2,20.333H498.2z M336.067,20.333L225.133,131.267
		l-17.067,17.067v-128h51.2V3.267H293.4v17.067H336.067z"/>
	<polygon style="fill:#80D6FA;" points="378.733,225.133 429.933,225.133 429.933,156.867 378.733,156.867 	"/>
	<polygon style="fill:#FFD0A1;" points="344.6,216.6 344.6,276.333 276.333,276.333 276.333,156.867 344.6,156.867 	"/>
</g>
<path style="fill:#51565F;" d="M55.467,503.467h-51.2C1.707,503.467,0,501.76,0,499.2c0-2.56,1.707-4.267,4.267-4.267h51.2
	c6.827,0,12.8-5.973,12.8-12.8V294.4c0-6.827-5.973-12.8-12.8-12.8h-51.2c-2.56,0-4.267-1.707-4.267-4.267s1.707-4.267,4.267-4.267
	h51.2c11.947,0,21.333,9.387,21.333,21.333v187.733C76.8,494.08,67.413,503.467,55.467,503.467z M285.867,486.4
	c-52.053,0-127.147-41.813-129.707-43.52l0,0c0,0-17.067-7.68-49.493-7.68c-2.56,0-4.267-1.707-4.267-4.267
	c0-2.56,1.707-4.267,4.267-4.267c34.987,0,52.053,8.533,52.907,9.387c0.853,0.853,76.8,41.813,126.293,41.813
	c57.173,0,82.773-16.213,82.773-16.213l115.2-71.68c5.12-2.56,8.533-7.68,10.24-12.8c1.707-5.12,0.853-11.093-2.56-16.213
	c-3.413-5.12-7.68-8.533-12.8-10.24c-5.12-1.707-11.093-0.853-16.213,1.707l-98.133,47.787c-17.92,9.387-34.987,9.387-69.973,9.387
	c-34.133,0-83.627-8.533-86.187-8.533s-4.267-2.56-3.413-5.12c0-2.56,2.56-4.267,5.12-3.413c0.853,0,51.2,8.533,84.48,8.533
	s50.347,0,66.56-7.68l98.133-47.787c13.653-7.68,32.427-3.413,40.107,11.093c4.267,6.827,5.12,15.36,3.413,23.04
	c-1.707,7.68-6.827,14.507-13.653,17.92l-115.2,71.68C372.053,469.333,346.453,486.4,285.867,486.4z M25.6,460.8
	c-5.12,0-8.533-3.413-8.533-8.533s3.413-8.533,8.533-8.533s8.533,3.413,8.533,8.533S30.72,460.8,25.6,460.8z M345.6,375.467
	c-0.853,0-2.56,0-3.413-0.853l0,0c0,0-7.68-7.68-22.187-7.68h-51.2c-14.507,0-31.573-12.8-49.493-26.453
	c-16.213-11.947-33.28-24.747-44.373-24.747h-68.267c-2.56,0-4.267-1.707-4.267-4.267c0-2.56,1.707-4.267,4.267-4.267h68.267
	c14.507,0,31.573,12.8,49.493,26.453C240.64,345.6,257.707,358.4,268.8,358.4H320c18.773,0,28.16,9.387,29.013,9.387
	c1.707,1.707,1.707,4.267,0,5.973C348.16,375.467,346.453,375.467,345.6,375.467z M482.133,281.6c-2.56,0-4.267-1.707-4.267-4.267
	V170.667c0-2.56,1.707-4.267,4.267-4.267s4.267,1.707,4.267,4.267v106.667C486.4,279.893,484.693,281.6,482.133,281.6z M345.6,281.6
	h-68.267c-2.56,0-4.267-1.707-4.267-4.267V157.867c0-2.56,1.707-4.267,4.267-4.267H345.6c2.56,0,4.267,1.707,4.267,4.267v119.467
	C349.867,279.893,348.16,281.6,345.6,281.6z M281.6,273.067h59.733v-51.2h-12.8c-2.56,0-4.267-1.707-4.267-4.267
	c0-2.56,1.707-4.267,4.267-4.267h12.8v-51.2H281.6V273.067z M226.133,281.6c-2.56,0-4.267-1.707-4.267-4.267V170.667
	c0-2.56,1.707-4.267,4.267-4.267s4.267,1.707,4.267,4.267v106.667C230.4,279.893,228.693,281.6,226.133,281.6z M430.933,230.4h-51.2
	c-2.56,0-4.267-1.707-4.267-4.267v-68.267c0-2.56,1.707-4.267,4.267-4.267h51.2c2.56,0,4.267,1.707,4.267,4.267v68.267
	C435.2,228.693,433.493,230.4,430.933,230.4z M384,221.867h42.667v-59.733H384V221.867z M499.2,153.6
	c-0.853,0-2.56-0.853-3.413-0.853L354.133,11.093L212.48,152.747c-0.853,0.853-3.413,1.707-4.267,0.853
	c-1.707-0.853-2.56-2.56-2.56-4.267v-128c0-2.56,1.707-4.267,4.267-4.267h46.933v-12.8c0-2.56,1.707-4.267,4.267-4.267h34.133
	c2.56,0,4.267,1.707,4.267,4.267v17.067c0,2.56-1.707,4.267-4.267,4.267s-4.267-1.707-4.267-4.267v-12.8h-25.6v12.8
	c0,2.56-1.707,4.267-4.267,4.267h-46.933v113.493L351.573,1.707c1.707-1.707,4.267-1.707,5.973,0l137.387,137.387V25.6h-81.067
	c-2.56,0-4.267-1.707-4.267-4.267s1.707-4.267,4.267-4.267H499.2c2.56,0,4.267,1.707,4.267,4.267v128
	c0,1.707-0.853,3.413-2.56,4.267C500.053,153.6,500.053,153.6,499.2,153.6z"/>
</svg>